# AST/ASF file generated using VICON BodyLanguage
# -----------------------------------------------
:version 1.10
:name VICON
:units
  mass 1.0
  length 0.45
  angle deg
:documentation
   .ast/.asf automatically generated from VICON data using
   VICON BodyBuilder and BodyLanguage model FoxedUp or BRILLIANT.MOD
:root
   order TX TY TZ RX RY RZ
   axis XYZ
   position 0 0 0  
   orientation 0 0 0 
:bonedata
  begin
     id 1 
     name lhipjoint
     direction 0.521452 -0.77106 0.36545 
     length 2.0933 
     axis 0 0 0  XYZ
  end
  begin
     id 2 
     name lfemur
     direction 0.34202 -0.939693 0  
     length 6.83441  
     axis 0 0 20  XYZ
    dof rx ry rz
    limits (-160.0 20.0)
           (-70.0 70.0)
           (-60.0 70.0)
  end
  begin
     id 3 
     name ltibia
     direction 0.34202 -0.939693 0   
     length 7.28749   
     axis 0 0 20   XYZ
    dof rx
    limits (-10.0 170.0)
  end
  begin
     id 4 
     name lfoot
     direction 0.100608 -0.276418 0.955757   
     length 1.52195   
     axis -90 7.62852e-016 20   XYZ
    dof rx rz
    limits (-45.0 90.0)
           (-70.0 20.0)
  end
  begin
     id 5 
     name ltoes
     direction 1.53558e-011 -4.21907e-011 1   
     length 0.770459   
     axis -90 7.62852e-016 20   XYZ
    dof rx
    limits (-90.0 20.0)
  end
  begin
     id 6 
     name rhipjoint
     direction -0.488071 -0.788702 0.373812   
     length 2.04648  
     axis 0 0 0  XYZ 
  end
  begin
     id 7 
     name rfemur
     direction -0.34202 -0.939693 0   
     length 6.92583   
     axis 0 0 -20   XYZ
    dof rx ry rz
    limits (-160.0 20.0)
           (-70.0 70.0)
           (-70.0 60.0)
  end
  begin
     id 8 
     name rtibia
     direction -0.34202 -0.939693 0   
     length 7.41043   
     axis 0 0 -20   XYZ
    dof rx
    limits (-10.0 170.0)
 end
 begin
     id 9 
     name rfoot
     direction -0.0784433 -0.215521 0.973343   
     length 1.67708  
     axis -90 -7.62852e-016 -20   XYZ
    dof rx rz
    limits (-45.0 90.0)
           (-20.0 70.0)
  end
  begin
     id 10 
     name rtoes
     direction -1.53551e-011 -4.21842e-011 1   
     length 0.849787   
     axis -90 -7.62852e-016 -20   XYZ
    dof rx
    limits (-90.0 20.0)
  end
  begin
     id 11 
     name lowerback
     direction -0.0122332 0.997575 -0.0685192   
     length 1.98724   
     axis 0 0 0   XYZ
    dof rx ry rz
    limits (-20.0 45.0)
           (-30.0 30.0)
           (-30.0 30.0)
  end
  begin
     id 12 
     name upperback
     direction 0.0182347 0.999724 -0.0148421   
     length 1.99029   
     axis 0 0 0   XYZ
    dof rx ry rz
    limits (-20.0 45.0)
           (-30.0 30.0)
           (-30.0 30.0)
  end
  begin
     id 13 
     name thorax
     direction 0.0242908 0.99956 0.0170184   
     length 1.99573   
     axis 0 0 0   XYZ
    dof rx ry rz
    limits (-20.0 45.0)
           (-30.0 30.0)
           (-30.0 30.0)
  end
  begin
     id 14 
     name lowerneck
     direction 0.0654488 0.985533 0.156338   
     length 1.4285   
     axis 0 0 0   XYZ
    dof rx ry rz
    limits (-20.0 45.0)
           (-30.0 30.0)
           (-30.0 30.0)
  end
  begin
     id 15 
     name upperneck
     direction -0.02953 0.998556 -0.0448842   
     length 1.44709   
     axis 0 0 0   XYZ
    dof rx ry rz
    limits (-20.0 45.0)
           (-30.0 30.0)
           (-30.0 30.0)
  end
  begin
     id 16
     name head
     direction -0.0155588 0.999386 -0.0314063  
     length 1.44689  
     axis 0 0 0   XYZ
    dof rx ry rz
    limits (-20.0 45.0)
           (-30.0 30.0)
           (-30.0 30.0)
  end
  begin
     id 17 
     name lclavicle
     direction 0.968229 0.236071 -0.0824755  
     length 3.60593  
     axis 0 0 0   XYZ
    dof ry rz
    limits (-20.0 10.0)
           (0.0 20.0)
  end
  begin
     id 18 
     name lhumerus
     direction 1 -4.48968e-011 7.8138e-029   
     length 5.06035   
     axis 180 -30 -90   XYZ
    dof rx ry rz
    limits (-60.0 90.0)
           (-90.0 90.0)
           (-90.0 90.0)
  end
  begin
     id 19
     name lradius
     direction 1 -4.48967e-011 9.02887e-028   
     length 3.1478   
     axis 180 -30 -90   XYZ
    dof rx
    limits (-10.0 170.0)
  end
  begin
     id 20
     name lwrist
     direction 1 -4.48961e-011 7.20928e-028   
     length 1.5739   
     axis -5.52449e-016 90 90   XYZ
    dof ry
    limits (-180.0 0.0)
 end
  begin
     id 21 
     name lhand
     direction 1 -4.48972e-011 1.44186e-027   
     length 0.606747   
     axis -9.20027e-016 90 90   XYZ
    dof rx rz
    limits (-90.0 90.0)
           (-45.0 45.0)
  end
  begin
     id 22 
     name lfingers
     direction 1 -4.48943e-011 2.88371e-027   
     length 0.489175   
     axis -1.84005e-015 90 90   XYZ
    dof rx
    limits (0.0 90.0)
  end
  begin
     id 23
     name lthumb
     direction 0.707107 -6.34917e-011 0.707107   
     length 0.70236   
     axis -90 45 2.85299e-015   XYZ
    dof rx rz
    limits (-45.0 45.0)
           (-45.0 45.0)
  end
  begin
     id 24 
     name rclavicle
     direction -0.978165 0.207816 0.0022268   
     length 3.35425  
     axis 0 0 0   XYZ 
    dof ry rz
    limits (-10.0 20.0)
           (-20.0 0.0)
  end
  begin
     id 25 
     name rhumerus
     direction -1 -4.48964e-011 -4.02159e-027  
     length 5.12273   
     axis 180 30 90   XYZ
    dof rx ry rz
    limits (-90.0 60.0)
           (-90.0 90.0)
           (-90.0 90.0)
  end
  begin
     id 26 
     name rradius
     direction -1 -4.48966e-011 1.62746e-027   
     length 3.422   
     axis 180 30 90   XYZ
    dof rx
    limits (-10.0 170.0)
  end
  begin
     id 27 
     name rwrist
     direction -1 -4.4896e-011 7.20928e-028   
     length 1.711   
     axis -5.52449e-016 -90 -90   XYZ
    dof ry
    limits (-180.0 0.0)
  end
  begin
     id 28
     name rhand
     direction -1 -4.48979e-011 1.44186e-027   
     length 0.704599   
     axis -9.20027e-016 -90 -90   XYZ
    dof rx rz
    limits (-90.0 90.0)
           (-45.0 45.0)
  end
  begin
     id 29
     name rfingers
     direction -1 -4.48962e-011 2.88371e-027   
     length 0.568066   
     axis -1.84005e-015 -90 -90   XYZ
    dof rx
    limits (0.0 90.0)
  end
  begin
     id 30
     name rthumb
     direction -0.707107 -6.34949e-011 0.707107   
     length 0.815633   
     axis -90 -45 -2.85299e-015   XYZ
    dof rx rz
    limits (-45.0 45.0)
           (-45.0 45.0)
  end
:hierarchy
  begin
    root lhipjoint rhipjoint lowerback
    lhipjoint lfemur
    lfemur ltibia
    ltibia lfoot
    lfoot ltoes
    rhipjoint rfemur
    rfemur rtibia
    rtibia rfoot
    rfoot rtoes
    lowerback upperback
    upperback thorax
    thorax lowerneck lclavicle rclavicle
    lowerneck upperneck
    upperneck head
    lclavicle lhumerus
    lhumerus lradius
    lradius lwrist
    lwrist lhand lthumb
    lhand lfingers
    rclavicle rhumerus
    rhumerus rradius
    rradius rwrist
    rwrist rhand rthumb
    rhand rfingers
  end

#!OML:ASF E:\id_vita\Project 1\Capture day 1\Session 1\Male1.ASF
:FULLY-SPECIFIED
:DEGREES
157
root 35.2453 15.9569 3.88654 166.457 -78.8669 -160.563
lowerback -1.05413 0.912144 3.24643
upperback 1.20609 1.1194 1.05903
thorax 1.87033 0.588164 -0.702223
lowerneck -3.41637 0.508385 4.56446
upperneck -3.95008 0.447785 -1.6731
head -0.63321 0.142967 -1.27782
rclavicle -1.68377e-014 9.19379e-015
rhumerus -16.1876 1.37156 -87.102
rradius 29.0076
rwrist 2.44034
rhand -20.5887 37.8828
rfingers 7.12502
rthumb 5.77143 7.98141
lclavicle -1.68377e-014 9.19379e-015
lhumerus -54.4561 47.6718 42.8535
lradius 4.75307
lwrist -36.0418
lhand -15.7049 51.6856
lfingers 7.12502
lthumb 10.4848 81.4041
rfemur 18.4633 5.14579 27.2672
rtibia -4.77083e-014
rfoot -12.7313 -1.46725
rtoes -10.7423
lfemur -38.1178 2.2343 -17.6138
ltibia 26.6647
lfoot -11.612 1.767
ltoes 48.9043
158
root 35.0748 15.9435 3.87645 167.563 -78.7345 -161.688
lowerback -1.21111 0.910124 3.07273
upperback 1.31766 1.11531 0.90749
thorax 2.07248 0.589208 -0.756662
lowerneck -3.85581 0.302864 4.76471
upperneck -4.24578 0.131452 -1.74934
head -0.662196 -0.0277012 -1.33865
rclavicle 5.10007e-015 1.21507e-014
rhumerus -16.032 0.921418 -87.359
rradius 28.787
rwrist 2.69261
rhand -20.562 38.042
rfingers 7.12502
rthumb 5.79724 8.14129
lclavicle 5.10007e-015 1.21507e-014
lhumerus -54.1052 47.7312 42.8777
lradius 4.30066
lwrist -36.0004
lhand -15.7352 52.2397
lfingers 7.12502
lthumb 10.4556 81.9597
rfemur 19.1439 5.23789 26.9943
rtibia -3.49861e-014
rfoot -12.0478 -1.05523
rtoes -11.7989
lfemur -37.9313 2.7248 -17.9524
ltibia 27.1853
lfoot -11.3529 1.32504
ltoes 48.5136
159
root 34.9026 15.926 3.87007 167.611 -78.4912 -161.721
lowerback -1.02103 0.999399 3.05535
upperback 0.93679 1.25658 0.824537
thorax 1.58077 0.651984 -0.835864
lowerneck -4.17861 0.64204 4.28879
upperneck -2.50056 0.621491 -1.1778
head -0.0564386 0.252982 -1.06671
rclavicle 1.63438e-014 4.96962e-017
rhumerus -16.8539 0.348217 -87.5614
rradius 28.6334
rwrist 2.9245
rhand -20.7163 38.0378
rfingers 7.12502
rthumb 5.64828 8.13312
lclavicle 1.63438e-014 4.96962e-017
lhumerus -54.3809 47.0122 42.5243
lradius 3.83356
lwrist -36.0558
lhand -15.9355 52.5258
lfingers 7.12502
lthumb 10.2624 82.2554
rfemur 19.7871 5.39268 26.9518
rtibia -3.18055e-015
rfoot -11.4572 -0.597541
rtoes -12.5946
lfemur -37.7217 3.10823 -17.9713
ltibia 27.8433
lfoot -11.0474 0.996816
ltoes 48.1309
160
root 34.7275 15.9078 3.86111 167.792 -78.0835 -161.992
lowerback -1.50391 0.956811 3.23521
upperback 1.3254 1.16759 0.711438
thorax 2.2547 0.622796 -1.04161
lowerneck -3.97332 0.414933 4.70163
upperneck -4.0607 0.280706 -1.67995
head -0.580055 0.0499573 -1.30365
rclavicle -9.0447e-015 -4.37326e-015
rhumerus -16.3953 0.513242 -88.015
rradius 28.3917
rwrist 2.94087
rhand -21.1009 37.9621
rfingers 7.12502
rthumb 5.27688 8.04784
lclavicle -9.0447e-015 -4.37326e-015
lhumerus -54.0883 47.588 42.39
lradius 3.42214
lwrist -36.2255
lhand -16.2281 52.821
lfingers 7.12502
lthumb 9.98008 82.5644
rfemur 20.5119 5.70272 26.9219
rtibia -9.85972e-014
rfoot -10.7884 -0.0306609
rtoes -16.3357
lfemur -37.3713 3.62088 -17.9844
ltibia 28.6442
lfoot -10.5762 0.939272
ltoes 48.6197
161
root 34.5475 15.8926 3.85249 168.474 -77.9651 -162.705
lowerback -1.45941 0.932434 2.91116
upperback 1.07235 1.15264 0.730902
thorax 1.96125 0.605281 -0.84471
lowerneck -3.92304 0.487796 4.38433
upperneck -3.62236 0.404425 -1.51635
head -0.449151 0.124617 -1.19451
rclavicle 1.14301e-014 1.41137e-014
rhumerus -17.3477 0.700296 -88.12
rradius 28.6358
rwrist 2.75186
rhand -21.3259 37.7973
rfingers 7.12502
rthumb 5.05972 7.87772
lclavicle 1.14301e-014 1.41137e-014
lhumerus -54.646 47.2558 42.0286
lradius 3.17372
lwrist -36.3336
lhand -16.5081 52.9576
lfingers 7.12502
lthumb 9.70999 82.7137
rfemur 21.1476 5.76988 26.6892
rtibia -7.31528e-014
rfoot -9.96734 0.72513
rtoes -12.1636
lfemur -37.1741 4.13461 -18.3178
ltibia 29.4985
lfoot -9.77568 1.08338
ltoes 48.9866
162
root 34.3568 15.888 3.84574 168.924 -77.999 -163.21
lowerback -1.68372 0.857323 2.96274
upperback 1.1614 1.04638 0.529218
thorax 2.17982 0.55876 -1.07948
lowerneck -4.74618 0.584614 4.20647
upperneck -3.05216 0.506867 -1.14718
head -0.135946 0.181602 -1.04375
rclavicle -1.33683e-014 2.98177e-015
rhumerus -17.6334 0.609972 -88.4986
rradius 28.7693
rwrist 2.60425
rhand -21.3419 37.4191
rfingers 7.12502
rthumb 5.04428 7.49911
lclavicle -1.33683e-014 2.98177e-015
lhumerus -54.3666 47.3391 41.9974
lradius 2.91446
lwrist -36.4241
lhand -16.6698 53.1717
lfingers 7.12502
lthumb 9.55392 82.935
rfemur 21.8784 5.68211 26.4509
rtibia -2.22639e-014
rfoot -9.01261 1.44666
rtoes -12.7968
lfemur -36.9629 4.61489 -18.6935
ltibia 30.2656
lfoot -8.61779 1.23703
ltoes 48.8731
